<svg width="289" height="80" viewBox="0 0 289 80" fill="none" xmlns="http://www.w3.org/2000/svg">
<circle cx="155" cy="40" r="40" fill="#9FC926"/>
<path fill-rule="evenodd" clip-rule="evenodd" d="M148.68 56.381C150.11 58.006 150.726 58.7071 151.408 61.0332C152.09 63.3593 146 79 146 79C146 79 149.684 80 153 80C156.316 80 157 80 157 80L155.802 70.6061C155.802 70.6061 155.524 66.018 156.865 63.9408C158.23 61.8259 158.229 61.6147 161.639 59.2886C165.05 56.9625 167.849 56.0609 171.871 54.0548C175.578 52.2057 177.893 51.4935 181.42 49.4026C184.528 47.5596 186.517 46.6611 188.922 44.1688C190.519 42.5145 191.251 41.4503 192.333 39.5166C192.95 38.4128 193.015 38.3535 193.697 36.6089C194.379 34.8644 193.697 33.7013 193.697 33.7013C193.697 33.7013 191.208 34.0856 189.604 34.2828C187.217 34.5764 185.85 34.5541 183.466 34.8644C180.78 35.2138 179.207 35.2566 176.645 36.0274C174.398 36.7035 173.181 37.24 171.188 38.3535C168.82 39.6769 167.714 40.6999 165.732 42.4242C164.013 43.9198 163.053 44.7829 161.639 46.4949C160.061 48.4068 159.362 49.5996 158.229 51.7287C157.289 53.4956 157.01 54.5734 156.183 56.381C155.661 57.5202 155.501 59.2886 154.819 59.2886C154.137 59.2886 154.595 54.6639 154.137 51.7287C153.744 49.2118 153.461 47.8021 152.773 45.3319C151.935 42.3267 151.768 40.4888 150.044 37.772C148.954 36.0537 148.129 35.1817 146.634 33.7013C145.405 32.4844 144.651 31.8415 143.223 30.7937C141.487 29.5189 140.377 28.9419 138.449 27.886C135.641 26.3479 133.692 26.0148 130.946 24.3968C127.379 22.2948 122.761 18 122.761 18C122.761 18 122.212 20.4689 122.079 22.0707C121.948 23.6565 122.003 24.553 122.079 26.1414C122.189 28.4218 122.725 29.7582 123.443 31.9567C124.243 34.4025 124.764 35.6408 126.172 37.772C127.528 39.8244 128.613 40.8114 130.399 42.6085C133.87 46.1011 136.247 47.7666 140.495 50.5657C142.308 51.7602 143.533 52.1985 145.27 53.4733C146.697 54.5212 147.55 55.0963 148.68 56.381ZM160.854 54.9886C160.854 54.9886 161.86 52.8177 162.322 51.7287C163.227 49.593 164.045 48.3387 165.732 46.4949C167.704 44.3385 169.598 43.0269 171.871 41.8427C173.733 40.8725 174.605 40.4901 176.645 39.9192C178.184 39.4884 181.42 38.9407 181.42 38.9407L188.293 37.772C188.293 37.772 185.923 39.929 184.122 41.0934C182.411 42.1998 180.925 43.4904 179.732 44.1688C177.744 45.2986 176.967 45.9834 174.463 47.5518C172.182 48.9814 169.634 50.5657 166.561 51.7287C163.488 52.8918 160.854 54.9886 160.854 54.9886ZM132.098 33.8523C129.463 30.9167 128.9 27.886 128.9 27.886C128.9 27.886 132.955 30.2173 135.61 31.1124C139.474 32.4152 141.573 33.786 144.39 36.3965C146.843 38.6695 146.634 39.5166 148.68 43.5873C149.836 45.8876 149.362 49.9841 149.362 49.9841C149.362 49.9841 145.799 44.4123 143.732 42.6085C141.098 40.3106 137.805 38.5492 137.805 38.5492C137.805 38.5492 134.732 36.7879 132.098 33.8523Z" fill="black"/>
<path d="M155.88 51.1472C155.88 51.1472 154.291 45.4004 155.198 41.8427C155.555 40.4391 155.551 39.5026 156.562 38.3535C157.014 37.8397 157.926 37.1905 157.926 37.1905C157.926 37.1905 159.299 40.6898 159.29 43.0058C159.284 44.6116 159.197 45.5511 158.608 47.0765C157.937 48.8156 155.88 51.1472 155.88 51.1472Z" fill="black"/>
<path d="M160.854 54.9886C160.854 54.9886 161.86 52.8177 162.322 51.7287C163.227 49.593 164.045 48.3387 165.732 46.4949C167.704 44.3385 169.598 43.0269 171.871 41.8427C173.733 40.8725 174.605 40.4901 176.645 39.9192C178.184 39.4884 181.42 38.9407 181.42 38.9407L188.293 37.772C188.293 37.772 185.923 39.929 184.122 41.0934C182.411 42.1998 180.925 43.4904 179.732 44.1688C177.744 45.2986 176.967 45.9834 174.463 47.5518C172.182 48.9814 169.634 50.5657 166.561 51.7287C163.488 52.8918 160.854 54.9886 160.854 54.9886Z" fill="white"/>
<path d="M128.9 27.886C128.9 27.886 129.463 30.9167 132.098 33.8523C134.732 36.7879 137.805 38.5492 137.805 38.5492C137.805 38.5492 141.098 40.3106 143.732 42.6085C145.799 44.4123 149.362 49.9841 149.362 49.9841C149.362 49.9841 149.836 45.8876 148.68 43.5873C146.634 39.5166 146.843 38.6695 144.39 36.3965C141.573 33.786 139.474 32.4152 135.61 31.1124C132.955 30.2173 128.9 27.886 128.9 27.886Z" fill="white"/>
<path d="M6.16 54.66C4.42667 54.2867 3.24 53.4133 2.6 52.04C1.97333 50.6667 1.66 48.84 1.66 46.56C1.66 45.9067 1.67333 45.16 1.7 44.32C1.74 43.4667 1.79333 42.58 1.86 41.66C1.92667 40.74 2 39.84 2.08 38.96C2.16 38.08 2.24 37.2733 2.32 36.54C2.4 35.8067 2.47333 35.2133 2.54 34.76C2.80667 32.9867 3.2 31.7 3.72 30.9C4.24 30.1 4.94667 29.7 5.84 29.7C6.41333 29.7 6.84 29.8267 7.12 30.08C7.4 30.32 7.58667 30.6667 7.68 31.12C7.77333 31.5733 7.82 32.1133 7.82 32.74C7.82 33.1533 7.80667 33.64 7.78 34.2C7.75333 34.7467 7.72667 35.3333 7.7 35.96C7.67333 36.5867 7.64667 37.2467 7.62 37.94C7.59333 38.62 7.56667 39.3 7.54 39.98C7.51333 40.66 7.49333 41.3267 7.48 41.98C7.48 42.62 7.48667 43.2267 7.5 43.8C7.52667 44.9333 7.59333 45.88 7.7 46.64C7.82 47.4 8.04667 48 8.38 48.44C8.71333 48.8667 9.2 49.18 9.84 49.38C10.4933 49.5667 11.3667 49.6667 12.46 49.68C13.4067 49.72 14.3 49.76 15.14 49.8C15.9933 49.8267 16.6933 49.86 17.24 49.9C18.04 49.8467 18.6933 49.8267 19.2 49.84C19.7067 49.84 20.0867 49.8867 20.34 49.98C20.5533 50.0867 20.7067 50.24 20.8 50.44C20.9067 50.6267 20.96 50.8933 20.96 51.24C20.96 51.8 20.7867 52.2733 20.44 52.66C20.0933 53.0467 19.6067 53.3733 18.98 53.64C18.3667 53.9067 17.6533 54.14 16.84 54.34C15.9867 54.54 15 54.7 13.88 54.82C12.76 54.94 11.6467 55 10.54 55C10.1 55 9.60667 54.9867 9.06 54.96C8.52667 54.9467 8 54.9133 7.48 54.86C6.97333 54.8067 6.53333 54.74 6.16 54.66ZM34.1322 55.38C31.8922 55.38 29.9522 55.04 28.3122 54.36C26.6722 53.68 25.4055 52.6333 24.5122 51.22C23.6189 49.7933 23.1722 47.98 23.1722 45.78C23.1722 43.9533 23.4722 42.36 24.0722 41C24.6855 39.6267 25.5255 38.48 26.5922 37.56C27.6589 36.64 28.8922 35.9533 30.2922 35.5C31.6922 35.0333 33.1855 34.8 34.7722 34.8C35.8522 34.8 36.8722 34.9133 37.8322 35.14C38.8055 35.3667 39.6655 35.72 40.4122 36.2C41.1722 36.6667 41.7655 37.2667 42.1922 38C42.6189 38.7333 42.8322 39.6067 42.8322 40.62C42.8322 41.7 42.6055 42.58 42.1522 43.26C41.6989 43.9267 41.0789 44.4533 40.2922 44.84C39.5055 45.2133 38.6122 45.4933 37.6122 45.68C36.6255 45.8533 35.5922 45.9867 34.5122 46.08C33.9655 46.1733 33.3189 46.2533 32.5722 46.32C31.8255 46.3733 31.0989 46.42 30.3922 46.46C29.6989 46.4867 29.1589 46.5 28.7722 46.5C28.3722 46.5 28.0989 46.5533 27.9522 46.66C27.8055 46.7667 27.7322 46.96 27.7322 47.24C27.7322 47.5733 27.8255 47.9667 28.0122 48.42C28.1989 48.86 28.4655 49.2933 28.8122 49.72C29.4522 50.5067 30.1922 51.0333 31.0322 51.3C31.8855 51.5533 32.9322 51.68 34.1722 51.68C35.2522 51.68 36.2389 51.5533 37.1322 51.3C38.0255 51.0333 38.8255 50.7733 39.5322 50.52C40.2522 50.2533 40.8989 50.12 41.4722 50.12C41.9922 50.12 42.3989 50.22 42.6922 50.42C42.9989 50.6067 43.1522 50.98 43.1522 51.54C43.1522 52.0467 42.9189 52.5333 42.4522 53C41.9989 53.4667 41.3655 53.8733 40.5522 54.22C39.7389 54.58 38.7855 54.86 37.6922 55.06C36.5989 55.2733 35.4122 55.38 34.1322 55.38ZM32.5522 44.26C33.6322 44.26 34.6389 44.16 35.5722 43.96C36.5055 43.7467 37.2589 43.3933 37.8322 42.9C38.4189 42.3933 38.7122 41.7 38.7122 40.82C38.7122 39.78 38.3322 39 37.5722 38.48C36.8122 37.9467 35.7455 37.68 34.3722 37.68C33.5589 37.68 32.7655 37.8267 31.9922 38.12C31.2189 38.4 30.5322 38.7933 29.9322 39.3C29.3322 39.8067 28.8522 40.38 28.4922 41.02C28.1322 41.66 27.9522 42.3467 27.9522 43.08C27.9522 43.4533 28.0989 43.7267 28.3922 43.9C28.6989 44.06 29.1855 44.16 29.8522 44.2C30.5322 44.24 31.4322 44.26 32.5522 44.26ZM54.2619 55.94C53.1819 55.94 52.1552 55.8333 51.1819 55.62C50.2219 55.4067 49.3685 55.0667 48.6219 54.6C47.8752 54.1333 47.2885 53.5267 46.8619 52.78C46.4352 52.0333 46.2219 51.12 46.2219 50.04C46.2219 48.8133 46.5219 47.8067 47.1219 47.02C47.7219 46.2333 48.5352 45.62 49.5619 45.18C50.6019 44.7267 51.7685 44.4133 53.0619 44.24C54.3552 44.0667 55.6952 43.98 57.0819 43.98C57.5085 43.98 57.9419 43.9933 58.3819 44.02C58.8219 44.0467 59.2352 44.0733 59.6219 44.1C60.0219 44.1267 60.3485 44.14 60.6019 44.14C60.9485 44.14 61.1819 44.0867 61.3019 43.98C61.4219 43.86 61.4819 43.66 61.4819 43.38C61.4819 42.86 61.4152 42.4 61.2819 42C61.1619 41.6 60.9819 41.2467 60.7419 40.94C60.5019 40.6333 60.2152 40.3733 59.8819 40.16C59.3485 39.8 58.7019 39.5467 57.9419 39.4C57.1952 39.24 56.3885 39.16 55.5219 39.16C54.4952 39.16 53.5819 39.2667 52.7819 39.48C51.9952 39.6933 51.2952 39.9133 50.6819 40.14C50.0685 40.3667 49.5085 40.48 49.0019 40.48C48.3085 40.48 47.7752 40.3667 47.4019 40.14C47.0285 39.9133 46.8419 39.5467 46.8419 39.04C46.8419 38.52 47.0619 38.04 47.5019 37.6C47.9419 37.16 48.5485 36.7733 49.3219 36.44C50.1085 36.1067 51.0152 35.8467 52.0419 35.66C53.0819 35.4733 54.1885 35.38 55.3619 35.38C57.7219 35.38 59.6952 35.68 61.2819 36.28C62.8819 36.8667 64.0819 37.8267 64.8819 39.16C65.6819 40.48 66.0819 42.26 66.0819 44.5C66.0819 45.1667 66.0485 45.7467 65.9819 46.24C65.9152 46.7333 65.8285 47.1667 65.7219 47.54C65.6285 47.9 65.5485 48.2133 65.4819 48.48C65.4152 48.7467 65.3819 48.9933 65.3819 49.22C65.3819 49.54 65.4819 49.8467 65.6819 50.14C65.8952 50.42 66.1419 50.7 66.4219 50.98C66.7152 51.26 66.9685 51.56 67.1819 51.88C67.3952 52.1867 67.5019 52.5333 67.5019 52.92C67.5019 53.4933 67.3152 53.9067 66.9419 54.16C66.5685 54.4133 66.1552 54.54 65.7019 54.54C65.2885 54.54 64.9419 54.4 64.6619 54.12C64.3952 53.8533 64.1485 53.5867 63.9219 53.32C63.7085 53.0533 63.4419 52.92 63.1219 52.92C62.9352 52.92 62.7285 52.9733 62.5019 53.08C62.2885 53.1867 62.0219 53.3533 61.7019 53.58C61.3019 53.8733 60.7885 54.2 60.1619 54.56C59.5485 54.9333 58.7619 55.2533 57.8019 55.52C56.8419 55.8 55.6619 55.94 54.2619 55.94ZM54.8019 52.88C55.6285 52.88 56.4285 52.7533 57.2019 52.5C57.9752 52.2333 58.6685 51.8733 59.2819 51.42C59.8952 50.9533 60.3819 50.4133 60.7419 49.8C61.1019 49.1733 61.2819 48.5 61.2819 47.78C61.2819 47.3267 61.1285 47 60.8219 46.8C60.5285 46.6 60.0419 46.4733 59.3619 46.42C58.6819 46.3667 57.7819 46.34 56.6619 46.34C55.5552 46.34 54.5285 46.4533 53.5819 46.68C52.6352 46.8933 51.8752 47.26 51.3019 47.78C50.7285 48.2867 50.4419 48.98 50.4419 49.86C50.4419 50.54 50.6152 51.1 50.9619 51.54C51.3085 51.98 51.8085 52.3133 52.4619 52.54C53.1152 52.7667 53.8952 52.88 54.8019 52.88ZM79.2434 55.22C78.5501 55.22 78.0234 55.0733 77.6634 54.78C77.3168 54.5 77.0701 54.06 76.9234 53.46C76.8701 53.1 76.8034 52.62 76.7234 52.02C76.6434 51.42 76.5568 50.76 76.4634 50.04C76.3701 49.3067 76.2768 48.5667 76.1834 47.82C76.0901 47.0733 75.9968 46.38 75.9034 45.74C75.8234 45.1 75.7568 44.5733 75.7034 44.16C75.6768 43.8533 75.5834 43.64 75.4234 43.52C75.2768 43.4 75.0701 43.34 74.8034 43.34C74.6168 43.34 74.3501 43.3733 74.0034 43.44C73.6701 43.4933 73.2234 43.58 72.6634 43.7C72.0768 43.8333 71.6101 43.9467 71.2634 44.04C70.9168 44.12 70.6368 44.16 70.4234 44.16C70.1701 44.16 69.9501 44.1067 69.7634 44C69.5901 43.88 69.4501 43.72 69.3434 43.52C69.2501 43.32 69.2034 43.1 69.2034 42.86C69.2034 42.5667 69.3168 42.2867 69.5434 42.02C69.7701 41.7533 70.1434 41.5067 70.6634 41.28C70.8901 41.1733 71.2634 41.0467 71.7834 40.9C72.3168 40.7533 72.8701 40.6067 73.4434 40.46C74.0168 40.3133 74.4901 40.1933 74.8634 40.1C75.0634 40.06 75.1968 39.96 75.2634 39.8C75.3301 39.64 75.3634 39.4 75.3634 39.08C75.3634 38.68 75.3301 38.26 75.2634 37.82C75.2101 37.3667 75.1501 36.9 75.0834 36.42C75.0168 35.94 74.9834 35.4467 74.9834 34.94C74.9834 33.4867 75.2768 32.2733 75.8634 31.3C76.4501 30.3133 77.2901 29.5733 78.3834 29.08C79.4901 28.5733 80.7968 28.32 82.3034 28.32C82.8901 28.32 83.4501 28.3667 83.9834 28.46C84.5168 28.54 84.9901 28.6667 85.4034 28.84C85.8301 29 86.1634 29.2 86.4034 29.44C86.6434 29.6667 86.7634 29.9267 86.7634 30.22C86.7634 30.4867 86.6968 30.7 86.5634 30.86C86.4301 31.0067 86.2368 31.1267 85.9834 31.22C85.7301 31.2733 85.4034 31.3 85.0034 31.3C84.6168 31.2867 84.1634 31.2867 83.6434 31.3C82.1768 31.3133 81.1368 31.68 80.5234 32.4C79.9234 33.12 79.6234 34.1733 79.6234 35.56C79.6234 35.7733 79.6301 36.0133 79.6434 36.28C79.6568 36.5333 79.6768 36.7867 79.7034 37.04C79.7434 37.28 79.7768 37.5133 79.8034 37.74C79.8568 38.0867 79.9434 38.3333 80.0634 38.48C80.1834 38.6133 80.3501 38.68 80.5634 38.68C80.7368 38.68 81.0501 38.62 81.5034 38.5C81.9701 38.38 82.5168 38.22 83.1434 38.02C83.5968 37.86 84.0634 37.7133 84.5434 37.58C85.0234 37.4467 85.4568 37.34 85.8434 37.26C86.2301 37.1667 86.5101 37.12 86.6834 37.12C87.0568 37.12 87.3434 37.2333 87.5434 37.46C87.7568 37.6733 87.8634 37.96 87.8634 38.32C87.8634 38.6933 87.7434 39.02 87.5034 39.3C87.2768 39.5667 86.8168 39.8533 86.1234 40.16C85.6701 40.36 85.1101 40.5867 84.4434 40.84C83.7768 41.08 82.9501 41.3667 81.9634 41.7C81.3634 41.9133 80.9568 42.1733 80.7434 42.48C80.5434 42.7733 80.4434 43.1333 80.4434 43.56C80.4434 43.9333 80.4634 44.44 80.5034 45.08C80.5568 45.72 80.6168 46.4267 80.6834 47.2C80.7501 47.96 80.8101 48.7333 80.8634 49.52C80.9301 50.2933 80.9768 51.0067 81.0034 51.66C81.0301 52.3133 81.0234 52.84 80.9834 53.24C80.8901 53.9467 80.7034 54.4533 80.4234 54.76C80.1434 55.0667 79.7501 55.22 79.2434 55.22Z" fill="white"/>
<path d="M227.22 54.92C226.487 54.92 225.933 54.6733 225.56 54.18C225.187 53.7 224.96 52.92 224.88 51.84C224.867 51.4 224.853 50.8133 224.84 50.08C224.84 49.3333 224.847 48.5 224.86 47.58C224.873 46.6467 224.887 45.68 224.9 44.68C224.927 43.6667 224.947 42.6733 224.96 41.7C224.987 40.7133 225 39.8 225 38.96C225.013 38.1067 225.02 37.38 225.02 36.78C225.02 35.98 224.907 35.4467 224.68 35.18C224.467 34.9133 223.973 34.78 223.2 34.78C222.373 34.78 221.54 34.8467 220.7 34.98C219.873 35.1 219.053 35.16 218.24 35.16C217.84 35.16 217.48 35.0867 217.16 34.94C216.84 34.7933 216.587 34.58 216.4 34.3C216.227 34.0067 216.14 33.6533 216.14 33.24C216.14 32.76 216.38 32.34 216.86 31.98C217.353 31.62 218.033 31.32 218.9 31.08C219.767 30.8267 220.787 30.6267 221.96 30.48C223.133 30.32 224.413 30.2067 225.8 30.14C227.187 30.0733 228.627 30.04 230.12 30.04C231.093 30.04 232.047 30.06 232.98 30.1C233.927 30.14 234.813 30.2133 235.64 30.32C236.48 30.4267 237.213 30.5867 237.84 30.8C238.48 31.0133 238.98 31.2933 239.34 31.64C239.7 31.9733 239.88 32.3933 239.88 32.9C239.88 33.3667 239.78 33.7533 239.58 34.06C239.393 34.3667 239.12 34.6 238.76 34.76C238.4 34.9067 237.953 34.98 237.42 34.98C236.727 34.98 236.133 34.96 235.64 34.92C235.147 34.8667 234.567 34.84 233.9 34.84C232.913 34.84 232.193 34.92 231.74 35.08C231.287 35.2267 231 35.52 230.88 35.96C230.76 36.3867 230.687 37.0333 230.66 37.9C230.647 38.4733 230.62 39.0867 230.58 39.74C230.553 40.3933 230.52 41.08 230.48 41.8C230.44 42.52 230.387 43.2533 230.32 44C230.267 44.7333 230.207 45.4667 230.14 46.2C230.087 46.92 230.027 47.6267 229.96 48.32C229.907 49 229.847 49.64 229.78 50.24C229.713 50.84 229.653 51.3867 229.6 51.88C229.44 52.64 229.267 53.2467 229.08 53.7C228.907 54.14 228.673 54.4533 228.38 54.64C228.1 54.8267 227.713 54.92 227.22 54.92ZM250.773 55.38C248.533 55.38 246.593 55.04 244.953 54.36C243.313 53.68 242.046 52.6333 241.153 51.22C240.259 49.7933 239.813 47.98 239.813 45.78C239.813 43.9533 240.113 42.36 240.713 41C241.326 39.6267 242.166 38.48 243.233 37.56C244.299 36.64 245.533 35.9533 246.933 35.5C248.333 35.0333 249.826 34.8 251.413 34.8C252.493 34.8 253.513 34.9133 254.473 35.14C255.446 35.3667 256.306 35.72 257.053 36.2C257.813 36.6667 258.406 37.2667 258.833 38C259.259 38.7333 259.473 39.6067 259.473 40.62C259.473 41.7 259.246 42.58 258.793 43.26C258.339 43.9267 257.719 44.4533 256.933 44.84C256.146 45.2133 255.253 45.4933 254.253 45.68C253.266 45.8533 252.233 45.9867 251.153 46.08C250.606 46.1733 249.959 46.2533 249.213 46.32C248.466 46.3733 247.739 46.42 247.033 46.46C246.339 46.4867 245.799 46.5 245.413 46.5C245.013 46.5 244.739 46.5533 244.593 46.66C244.446 46.7667 244.373 46.96 244.373 47.24C244.373 47.5733 244.466 47.9667 244.653 48.42C244.839 48.86 245.106 49.2933 245.453 49.72C246.093 50.5067 246.833 51.0333 247.673 51.3C248.526 51.5533 249.573 51.68 250.813 51.68C251.893 51.68 252.879 51.5533 253.773 51.3C254.666 51.0333 255.466 50.7733 256.173 50.52C256.893 50.2533 257.539 50.12 258.113 50.12C258.633 50.12 259.039 50.22 259.333 50.42C259.639 50.6067 259.793 50.98 259.793 51.54C259.793 52.0467 259.559 52.5333 259.093 53C258.639 53.4667 258.006 53.8733 257.193 54.22C256.379 54.58 255.426 54.86 254.333 55.06C253.239 55.2733 252.053 55.38 250.773 55.38ZM249.193 44.26C250.273 44.26 251.279 44.16 252.213 43.96C253.146 43.7467 253.899 43.3933 254.473 42.9C255.059 42.3933 255.353 41.7 255.353 40.82C255.353 39.78 254.973 39 254.213 38.48C253.453 37.9467 252.386 37.68 251.013 37.68C250.199 37.68 249.406 37.8267 248.633 38.12C247.859 38.4 247.173 38.7933 246.573 39.3C245.973 39.8067 245.493 40.38 245.133 41.02C244.773 41.66 244.593 42.3467 244.593 43.08C244.593 43.4533 244.739 43.7267 245.033 43.9C245.339 44.06 245.826 44.16 246.493 44.2C247.173 44.24 248.073 44.26 249.193 44.26ZM270.903 55.94C269.823 55.94 268.796 55.8333 267.823 55.62C266.863 55.4067 266.009 55.0667 265.263 54.6C264.516 54.1333 263.929 53.5267 263.503 52.78C263.076 52.0333 262.863 51.12 262.863 50.04C262.863 48.8133 263.163 47.8067 263.763 47.02C264.363 46.2333 265.176 45.62 266.203 45.18C267.243 44.7267 268.409 44.4133 269.703 44.24C270.996 44.0667 272.336 43.98 273.723 43.98C274.149 43.98 274.583 43.9933 275.023 44.02C275.463 44.0467 275.876 44.0733 276.263 44.1C276.663 44.1267 276.989 44.14 277.243 44.14C277.589 44.14 277.823 44.0867 277.943 43.98C278.063 43.86 278.123 43.66 278.123 43.38C278.123 42.86 278.056 42.4 277.923 42C277.803 41.6 277.623 41.2467 277.383 40.94C277.143 40.6333 276.856 40.3733 276.523 40.16C275.989 39.8 275.343 39.5467 274.583 39.4C273.836 39.24 273.029 39.16 272.163 39.16C271.136 39.16 270.223 39.2667 269.423 39.48C268.636 39.6933 267.936 39.9133 267.323 40.14C266.709 40.3667 266.149 40.48 265.643 40.48C264.949 40.48 264.416 40.3667 264.043 40.14C263.669 39.9133 263.483 39.5467 263.483 39.04C263.483 38.52 263.703 38.04 264.143 37.6C264.583 37.16 265.189 36.7733 265.963 36.44C266.749 36.1067 267.656 35.8467 268.683 35.66C269.723 35.4733 270.829 35.38 272.003 35.38C274.363 35.38 276.336 35.68 277.923 36.28C279.523 36.8667 280.723 37.8267 281.523 39.16C282.323 40.48 282.723 42.26 282.723 44.5C282.723 45.1667 282.689 45.7467 282.623 46.24C282.556 46.7333 282.469 47.1667 282.363 47.54C282.269 47.9 282.189 48.2133 282.122 48.48C282.056 48.7467 282.023 48.9933 282.023 49.22C282.023 49.54 282.123 49.8467 282.323 50.14C282.536 50.42 282.783 50.7 283.063 50.98C283.356 51.26 283.609 51.56 283.823 51.88C284.036 52.1867 284.143 52.5333 284.143 52.92C284.143 53.4933 283.956 53.9067 283.583 54.16C283.209 54.4133 282.796 54.54 282.343 54.54C281.929 54.54 281.583 54.4 281.303 54.12C281.036 53.8533 280.789 53.5867 280.563 53.32C280.349 53.0533 280.083 52.92 279.763 52.92C279.576 52.92 279.369 52.9733 279.143 53.08C278.929 53.1867 278.663 53.3533 278.343 53.58C277.943 53.8733 277.429 54.2 276.803 54.56C276.189 54.9333 275.403 55.2533 274.443 55.52C273.483 55.8 272.303 55.94 270.903 55.94ZM271.443 52.88C272.269 52.88 273.069 52.7533 273.843 52.5C274.616 52.2333 275.309 51.8733 275.923 51.42C276.536 50.9533 277.023 50.4133 277.383 49.8C277.743 49.1733 277.923 48.5 277.923 47.78C277.923 47.3267 277.769 47 277.463 46.8C277.169 46.6 276.683 46.4733 276.003 46.42C275.323 46.3667 274.423 46.34 273.303 46.34C272.196 46.34 271.169 46.4533 270.223 46.68C269.276 46.8933 268.516 47.26 267.943 47.78C267.369 48.2867 267.083 48.98 267.083 49.86C267.083 50.54 267.256 51.1 267.603 51.54C267.949 51.98 268.449 52.3133 269.103 52.54C269.756 52.7667 270.536 52.88 271.443 52.88Z" fill="white"/>
</svg>
